<?xml version="1.0" encoding="UTF-8"?> <svg xmlns="http://www.w3.org/2000/svg" width="100" height="100" viewBox="0 0 100 100" fill="none"> <mask id="path-1-inside-1_280_2274" fill="white"> <path fill-rule="evenodd" clip-rule="evenodd" d="M34.3207 25.3641C33.8051 25.6276 33.177 26.2001 32.9255 26.6361C32.6736 27.0722 32.0237 29.867 31.4811 32.8468C30.9384 35.8266 30.4351 38.4639 30.3626 38.7073C30.246 39.0984 29.6068 39.1603 24.9 39.2358C19.9432 39.3157 19.5018 39.3629 18.6019 39.9098C18.0695 40.2332 17.4912 40.8038 17.317 41.1775C17.0863 41.6723 17 46.0263 17 57.1609C17 68.2954 17.0863 72.6495 17.317 73.1442C17.4912 73.5179 18.0695 74.0885 18.6019 74.412L19.5697 75H42.7446C65.7583 75 65.9247 74.9963 66.6831 74.4527C67.9866 73.5181 68.3926 72.3817 68.3929 69.6638C68.3932 68.3279 68.4989 67.1711 68.6282 67.0932C68.7573 67.0152 69.8025 67.127 70.9512 67.3418C73.5639 67.8302 74.9767 67.8363 75.9137 67.3627C77.6221 66.4996 77.4095 67.3202 81.1077 47.3258C82.1485 41.6984 83 36.5592 83 35.9048C83 34.2758 81.8804 33.0109 80.0868 32.6131C78.7744 32.3222 69.8111 30.6971 66.9057 30.2235C65.5068 29.9952 59.0428 28.8595 54.7336 28.0846C53.9898 27.9509 51.3119 27.4773 48.7828 27.0323C46.2537 26.5872 42.8455 25.9852 41.209 25.6942C36.5363 24.8641 35.4056 24.8099 34.3207 25.3641ZM41.767 27.9472C44.5842 28.4504 47.924 29.0395 49.1885 29.2562C50.4531 29.4729 54.5307 30.1957 58.25 30.8625C61.9693 31.5293 67.0207 32.4202 69.4754 32.8426C78.1539 34.3355 80.1404 34.7261 80.4863 35.0065C80.9386 35.3731 80.9037 36.3676 80.3302 39.4539C79.9259 41.631 79.7882 41.9754 79.2934 42.0457C78.5336 42.1538 68.2812 40.3403 66.9057 39.8543C66.3107 39.6442 64.9717 39.3978 63.9303 39.3069C62.8889 39.216 57.2898 38.3127 51.4877 37.2992C35.6366 34.5305 33.9633 34.2089 33.764 33.8933C33.6628 33.734 33.8002 32.452 34.0691 31.0446C34.338 29.6376 34.5633 28.346 34.5701 28.1745C34.5898 27.6573 35.3934 27.0325 36.0386 27.0325C36.3721 27.0325 38.9499 27.4443 41.767 27.9472ZM37.8279 37.0732C43.4633 38.0095 46.8755 38.6964 47.1463 38.9496C47.3007 39.0937 44.4641 39.1896 40.0459 39.1896C31.8129 39.1896 32.384 39.3463 32.9801 37.2498C33.2233 36.394 33.361 36.2563 33.8576 36.3731C34.1816 36.4492 35.9682 36.7642 37.8279 37.0732ZM65.7489 41.7854C66.0191 42.0494 66.1108 45.3593 66.1703 56.9798C66.2352 69.6274 66.1881 71.915 65.8541 72.3614C65.4689 72.8762 65.0461 72.887 42.8125 72.9563C21.9627 73.0213 20.1237 72.9917 19.6635 72.585C19.1888 72.165 19.1639 71.3949 19.1639 57.1522C19.1639 41.343 19.1299 41.7819 20.3811 41.5055C20.6787 41.4399 30.9303 41.4 43.1628 41.4172C60.8053 41.4418 65.4748 41.5179 65.7489 41.7854ZM73.668 43.4226C75.4533 43.7337 77.4008 44.0709 77.9959 44.1716C78.9956 44.341 79.0833 44.4248 79.1485 45.2739C79.2764 46.9389 79.0773 47.0147 75.9191 46.506C70.922 45.701 69.0072 45.3432 68.6975 45.1563C68.3586 44.9515 68.2793 43.0899 68.5963 42.7783C68.7078 42.6686 69.1643 42.6414 69.6107 42.7178C70.057 42.7941 71.8828 43.1113 73.668 43.4226ZM26.9381 46.6886C24.8935 47.4302 24.3033 48.4173 24.3033 51.0953C24.3033 53.4992 24.8237 54.6264 26.2652 55.345C27.2089 55.8154 27.7499 55.8706 30.6723 55.7942C34.3396 55.6986 35.1 55.4153 35.9344 53.8335C36.5668 52.635 36.4643 49.1692 35.7694 48.2601C34.579 46.7019 33.969 46.4706 30.8478 46.3924C28.8735 46.343 27.6319 46.437 26.9381 46.6886ZM74.6148 48.4353C76.4744 48.7585 78.1033 49.1216 78.2348 49.2421C78.3716 49.3677 78.169 51.0755 77.76 53.245C77.3678 55.3259 76.7297 58.7532 76.3424 60.8608C75.9548 62.9685 75.5252 64.9009 75.3873 65.1554C75.2279 65.4493 74.8198 65.6179 74.2672 65.6177C73.2496 65.6171 69.0399 64.92 68.6564 64.6885C68.4949 64.5909 68.3934 61.2583 68.3934 56.0554V47.5811L69.8135 47.7143C70.5947 47.7875 72.7551 48.1118 74.6148 48.4353ZM33.7029 49.0386C33.9187 49.2035 34.041 49.9993 34.041 51.2375C34.041 53.6663 33.9487 53.7252 30.1429 53.7252C27.3974 53.7252 27.2746 53.7006 26.8467 53.0626C26.5178 52.5721 26.4329 51.9902 26.5194 50.8218C26.5835 49.9536 26.7293 49.1518 26.8435 49.0397C27.0753 48.8119 31.9804 48.5135 32.8238 48.6758C33.1213 48.7331 33.517 48.8964 33.7029 49.0386ZM48.918 50.0252V51.0823H54.8399C61.2722 51.0823 61.3022 51.0749 60.9254 49.6079L60.761 48.9681H54.8396H48.918V50.0252ZM24.3033 64.2875V65.3536H27.2949H30.2868L30.2027 64.3626L30.1189 63.3715L27.2111 63.2965L24.3033 63.2214V64.2875ZM34.2333 63.4207C34.1221 63.6023 34.1419 64.3792 34.2768 65.1554C34.296 65.2643 35.5823 65.3536 37.1357 65.3536C38.6891 65.3536 40.0134 65.2643 40.0789 65.1554C40.1444 65.0466 40.1408 64.5912 40.071 64.144L39.9442 63.3308L37.1543 63.2682C35.6201 63.2338 34.3055 63.3023 34.2333 63.4207ZM44.2382 63.4069C44.1344 63.5087 44.0492 63.9881 44.0492 64.4728V65.3536H47.0116H49.974L49.8837 64.3626L49.7931 63.3715L47.1103 63.2967C45.6348 63.2558 44.3424 63.3052 44.2382 63.4069ZM53.976 63.4069C53.8721 63.5087 53.7869 63.9881 53.7869 64.4728V65.3536H56.7785H59.7704L59.6863 64.3626L59.6025 63.3715L56.8837 63.2967C55.3887 63.2558 54.0801 63.3052 53.976 63.4069Z"></path> </mask> <path fill-rule="evenodd" clip-rule="evenodd" d="M34.3207 25.3641C33.8051 25.6276 33.177 26.2001 32.9255 26.6361C32.6736 27.0722 32.0237 29.867 31.4811 32.8468C30.9384 35.8266 30.4351 38.4639 30.3626 38.7073C30.246 39.0984 29.6068 39.1603 24.9 39.2358C19.9432 39.3157 19.5018 39.3629 18.6019 39.9098C18.0695 40.2332 17.4912 40.8038 17.317 41.1775C17.0863 41.6723 17 46.0263 17 57.1609C17 68.2954 17.0863 72.6495 17.317 73.1442C17.4912 73.5179 18.0695 74.0885 18.6019 74.412L19.5697 75H42.7446C65.7583 75 65.9247 74.9963 66.6831 74.4527C67.9866 73.5181 68.3926 72.3817 68.3929 69.6638C68.3932 68.3279 68.4989 67.1711 68.6282 67.0932C68.7573 67.0152 69.8025 67.127 70.9512 67.3418C73.5639 67.8302 74.9767 67.8363 75.9137 67.3627C77.6221 66.4996 77.4095 67.3202 81.1077 47.3258C82.1485 41.6984 83 36.5592 83 35.9048C83 34.2758 81.8804 33.0109 80.0868 32.6131C78.7744 32.3222 69.8111 30.6971 66.9057 30.2235C65.5068 29.9952 59.0428 28.8595 54.7336 28.0846C53.9898 27.9509 51.3119 27.4773 48.7828 27.0323C46.2537 26.5872 42.8455 25.9852 41.209 25.6942C36.5363 24.8641 35.4056 24.8099 34.3207 25.3641ZM41.767 27.9472C44.5842 28.4504 47.924 29.0395 49.1885 29.2562C50.4531 29.4729 54.5307 30.1957 58.25 30.8625C61.9693 31.5293 67.0207 32.4202 69.4754 32.8426C78.1539 34.3355 80.1404 34.7261 80.4863 35.0065C80.9386 35.3731 80.9037 36.3676 80.3302 39.4539C79.9259 41.631 79.7882 41.9754 79.2934 42.0457C78.5336 42.1538 68.2812 40.3403 66.9057 39.8543C66.3107 39.6442 64.9717 39.3978 63.9303 39.3069C62.8889 39.216 57.2898 38.3127 51.4877 37.2992C35.6366 34.5305 33.9633 34.2089 33.764 33.8933C33.6628 33.734 33.8002 32.452 34.0691 31.0446C34.338 29.6376 34.5633 28.346 34.5701 28.1745C34.5898 27.6573 35.3934 27.0325 36.0386 27.0325C36.3721 27.0325 38.9499 27.4443 41.767 27.9472ZM37.8279 37.0732C43.4633 38.0095 46.8755 38.6964 47.1463 38.9496C47.3007 39.0937 44.4641 39.1896 40.0459 39.1896C31.8129 39.1896 32.384 39.3463 32.9801 37.2498C33.2233 36.394 33.361 36.2563 33.8576 36.3731C34.1816 36.4492 35.9682 36.7642 37.8279 37.0732ZM65.7489 41.7854C66.0191 42.0494 66.1108 45.3593 66.1703 56.9798C66.2352 69.6274 66.1881 71.915 65.8541 72.3614C65.4689 72.8762 65.0461 72.887 42.8125 72.9563C21.9627 73.0213 20.1237 72.9917 19.6635 72.585C19.1888 72.165 19.1639 71.3949 19.1639 57.1522C19.1639 41.343 19.1299 41.7819 20.3811 41.5055C20.6787 41.4399 30.9303 41.4 43.1628 41.4172C60.8053 41.4418 65.4748 41.5179 65.7489 41.7854ZM73.668 43.4226C75.4533 43.7337 77.4008 44.0709 77.9959 44.1716C78.9956 44.341 79.0833 44.4248 79.1485 45.2739C79.2764 46.9389 79.0773 47.0147 75.9191 46.506C70.922 45.701 69.0072 45.3432 68.6975 45.1563C68.3586 44.9515 68.2793 43.0899 68.5963 42.7783C68.7078 42.6686 69.1643 42.6414 69.6107 42.7178C70.057 42.7941 71.8828 43.1113 73.668 43.4226ZM26.9381 46.6886C24.8935 47.4302 24.3033 48.4173 24.3033 51.0953C24.3033 53.4992 24.8237 54.6264 26.2652 55.345C27.2089 55.8154 27.7499 55.8706 30.6723 55.7942C34.3396 55.6986 35.1 55.4153 35.9344 53.8335C36.5668 52.635 36.4643 49.1692 35.7694 48.2601C34.579 46.7019 33.969 46.4706 30.8478 46.3924C28.8735 46.343 27.6319 46.437 26.9381 46.6886ZM74.6148 48.4353C76.4744 48.7585 78.1033 49.1216 78.2348 49.2421C78.3716 49.3677 78.169 51.0755 77.76 53.245C77.3678 55.3259 76.7297 58.7532 76.3424 60.8608C75.9548 62.9685 75.5252 64.9009 75.3873 65.1554C75.2279 65.4493 74.8198 65.6179 74.2672 65.6177C73.2496 65.6171 69.0399 64.92 68.6564 64.6885C68.4949 64.5909 68.3934 61.2583 68.3934 56.0554V47.5811L69.8135 47.7143C70.5947 47.7875 72.7551 48.1118 74.6148 48.4353ZM33.7029 49.0386C33.9187 49.2035 34.041 49.9993 34.041 51.2375C34.041 53.6663 33.9487 53.7252 30.1429 53.7252C27.3974 53.7252 27.2746 53.7006 26.8467 53.0626C26.5178 52.5721 26.4329 51.9902 26.5194 50.8218C26.5835 49.9536 26.7293 49.1518 26.8435 49.0397C27.0753 48.8119 31.9804 48.5135 32.8238 48.6758C33.1213 48.7331 33.517 48.8964 33.7029 49.0386ZM48.918 50.0252V51.0823H54.8399C61.2722 51.0823 61.3022 51.0749 60.9254 49.6079L60.761 48.9681H54.8396H48.918V50.0252ZM24.3033 64.2875V65.3536H27.2949H30.2868L30.2027 64.3626L30.1189 63.3715L27.2111 63.2965L24.3033 63.2214V64.2875ZM34.2333 63.4207C34.1221 63.6023 34.1419 64.3792 34.2768 65.1554C34.296 65.2643 35.5823 65.3536 37.1357 65.3536C38.6891 65.3536 40.0134 65.2643 40.0789 65.1554C40.1444 65.0466 40.1408 64.5912 40.071 64.144L39.9442 63.3308L37.1543 63.2682C35.6201 63.2338 34.3055 63.3023 34.2333 63.4207ZM44.2382 63.4069C44.1344 63.5087 44.0492 63.9881 44.0492 64.4728V65.3536H47.0116H49.974L49.8837 64.3626L49.7931 63.3715L47.1103 63.2967C45.6348 63.2558 44.3424 63.3052 44.2382 63.4069ZM53.976 63.4069C53.8721 63.5087 53.7869 63.9881 53.7869 64.4728V65.3536H56.7785H59.7704L59.6863 64.3626L59.6025 63.3715L56.8837 63.2967C55.3887 63.2558 54.0801 63.3052 53.976 63.4069Z" fill="#373C59" stroke="#373C59" mask="url(#path-1-inside-1_280_2274)"></path> </svg> 