<?xml version="1.0" encoding="UTF-8"?><svg viewBox="0 0 60 60" xmlns="http://www.w3.org/2000/svg" xmlns:xlink="http://www.w3.org/1999/xlink"><style>:root>svg{display:none}:root>svg:target{display:block}</style><svg fill="none" viewBox="0 0 60 60" id="car_1" xmlns="http://www.w3.org/2000/svg"><path d="M13.315 16.914c.368-.389 2.295-2.332 4.287-4.31C19.593 10.62 21.247 9 21.277 9c.12 0 6.73 6.499 7.892 7.765.338.364.66.757.725.877.1.19.104.234.05.369-.15.358-.636.408-4.058.408h-2.588l-.03 4.87c-.012 2.606-.035 2.669-.062 2.744a.308.308 0 00-.017.065c-.07.424-.258.822-.546 1.141-.264.294-.572.459-.994.538-.844.155-1.683-.234-2.021-.927-.13-.264-.134-.303-.174-1.554l-.012-.37c-.015-.418-.028-.764-.028-2.505l-.005-3.997-3.24-.015c-2.75-.012-3.116-.014-3.307-.197-.03-.029-.055-.06-.084-.098l-.014-.019c-.223-.284-.174-.393.551-1.18z" fill="currentColor"/><path fill-rule="evenodd" clip-rule="evenodd" d="M34.573 19.834a3.99 3.99 0 01.67-.473l.403-.22 3.144.015c4.629.02 7.35.085 7.668.18.363.114.67.453 2.31 2.546 2.443 3.115 4.3 5.687 4.415 6.105.114.424.144 1.64.15 5.856.004 4.167.049 6.689.118 6.858.025.05.124.095.264.115.297.04.625.234.76.448.143.24.198.952.198 2.771v1.47l-.358.36-.357.363h-4.301v-.264c0-.847-.214-1.714-.616-2.552a7.035 7.035 0 00-1.396-1.943c-1.008-1.012-2.235-1.66-3.6-1.9-.587-.099-1.868-.074-2.434.056-2.076.463-3.959 2.048-4.818 4.051-.293.683-.402 1.142-.437 1.88l-.035.647-12.59.025v-.448c0-.773-.214-1.585-.646-2.452-1.4-2.806-4.395-4.311-7.326-3.683-1.405.304-2.235.747-3.273 1.749-1.197 1.151-1.768 2.302-2.076 4.166l-.109.668h-3.58l-.358-.359L6 45.511V27.858l.233-.439c.487-.912 1.292-1.385 2.116-1.24.825.139 1.53.757 1.729 1.51.04.159.07 1.36.089 4.136l.03 3.912 23.865.025.005-4.171a696 696 0 01.044-7.566l.005-.343c.036-2.919.042-3.376.267-3.657.042-.052.091-.098.15-.153l.04-.038zm10.192 3.638c-.348-.344-.656-.473-1.252-.523-.73-.055-4.947-.115-4.991-.07-.025.025-.04 1.326-.04 2.9v2.856l4.857-.005c2.667 0 4.937-.014 5.036-.034l.184-.035-.551-.773c-.954-1.346-3.025-4.091-3.243-4.316z" fill="currentColor"/><path fill-rule="evenodd" clip-rule="evenodd" d="M16.172 41.494c-1.147.194-2.38 1.037-3.094 2.118-.571.857-.795 1.675-.755 2.736.03.798.139 1.256.482 1.949a4.811 4.811 0 003.725 2.671c1.971.24 3.968-.902 4.887-2.786.313-.648.337-.827.318-2.118v-.002c-.02-1.1-.02-1.105-.174-1.488-.547-1.366-1.758-2.537-2.995-2.896-.72-.209-1.763-.289-2.394-.184zm1.51 3.27c.442.149.993.926 1.003 1.415.01.443-.492 1.22-.934 1.46-.298.16-.998.154-1.33-.01-.96-.473-1.208-1.665-.512-2.442.452-.503 1.097-.658 1.773-.424zM39.52 42.929c.641-.703 1.664-1.266 2.613-1.435.139-.025.561-.035.943-.025 1.356.03 2.21.388 3.17 1.315.645.628 1.087 1.301 1.3 1.999.105.354.16 1.754.085 2.352-.194 1.56-1.525 3.055-3.218 3.623a4.294 4.294 0 01-2.827 0c-.839-.284-1.455-.682-2.1-1.36-.552-.583-.974-1.316-1.098-1.914-.084-.404-.07-2.267.02-2.616.144-.564.636-1.416 1.112-1.94zm5.056 3.145c-.064-.519-.501-1.117-.943-1.281-.92-.344-1.803.03-2.126.902-.149.404-.144.737.03 1.121a1.593 1.593 0 002.394.643c.397-.284.7-.932.645-1.385z" fill="currentColor"/></svg><svg fill="none" viewBox="0 0 60 60" id="car_2" xmlns="http://www.w3.org/2000/svg"><path d="M26.84 12.822a2.232 2.232 0 00-3.132-3.18l-3.657 3.603-3.657-3.603a2.232 2.232 0 10-3.132 3.18l3.61 3.556-3.61 3.556a2.232 2.232 0 103.132 3.18l3.657-3.604 3.658 3.604a2.232 2.232 0 003.132-3.18l-3.61-3.556 3.61-3.556z" fill="currentColor"/><path fill-rule="evenodd" clip-rule="evenodd" d="M34.32 17.93c.157-.148.479-.375.71-.502l.428-.233 3.336.016c4.912.022 7.8.09 8.137.19.385.122.712.482 2.45 2.703 2.594 3.305 4.565 6.034 4.686 6.478.121.45.153 1.74.158 6.214.005 4.421.053 7.097.126 7.277.027.053.132.1.28.122.316.042.664.248.806.476.153.254.21 1.01.21 2.94v1.56l-.378.38-.38.387h-4.564v-.28c0-.9-.227-1.82-.654-2.708a7.463 7.463 0 00-1.48-2.063c-1.07-1.073-2.372-1.76-3.821-2.014-.622-.106-1.982-.08-2.583.058-2.203.492-4.2 2.173-5.112 4.3-.31.724-.427 1.21-.464 1.993l-.036.687-13.36.027v-.476c0-.82-.227-1.682-.686-2.602-1.486-2.977-4.664-4.574-7.773-3.908-1.492.323-2.372.793-3.473 1.856-1.27 1.222-1.876 2.443-2.203 4.421l-.116.709h-3.8l-.38-.38L4 45.175V26.445l.248-.465c.516-.968 1.37-1.47 2.245-1.317.875.148 1.623.803 1.834 1.602.042.17.074 1.444.095 4.39l.031 4.15 25.324.027.005-4.426c0-2.438.021-6.05.047-8.028l.005-.365c.039-3.096.045-3.581.284-3.88.044-.055.096-.104.159-.162l.042-.04zm10.814 3.861c-.369-.365-.696-.502-1.328-.555-.775-.058-5.25-.122-5.297-.074-.026.026-.042 1.407-.042 3.078v3.03l5.154-.005c2.83 0 5.239-.016 5.344-.037l.195-.038-.585-.82c-1.012-1.427-3.21-4.34-3.441-4.579z" fill="currentColor"/><path fill-rule="evenodd" clip-rule="evenodd" d="M11.51 43.161c.759-1.147 2.066-2.041 3.283-2.247.67-.111 1.776-.027 2.54.195 1.313.381 2.599 1.624 3.178 3.073.164.407.164.412.185 1.579v.002c.02 1.37-.005 1.56-.337 2.248-.975 1.999-3.094 3.21-5.186 2.956a5.106 5.106 0 01-3.953-2.835c-.364-.735-.48-1.221-.511-2.067-.042-1.127.195-1.994.8-2.904zm5.95 2.724c-.01-.518-.596-1.343-1.065-1.502-.716-.249-1.402-.085-1.881.45-.738.824-.474 2.088.543 2.59.353.175 1.096.18 1.412.011.47-.254 1.002-1.078.991-1.55zM42.34 40.913c-1.006.18-2.092.778-2.772 1.524-.505.555-1.027 1.46-1.18 2.057-.095.37-.11 2.348-.021 2.776.132.635.58 1.412 1.165 2.03.685.72 1.338 1.143 2.229 1.445a4.556 4.556 0 002.999 0c1.797-.603 3.21-2.19 3.415-3.845.079-.635.02-2.12-.09-2.496-.227-.74-.696-1.455-1.38-2.12-1.018-.984-1.924-1.365-3.363-1.397-.406-.01-.854 0-1.001.026zm1.592 3.501c.47.175.933.81 1.002 1.36.058.48-.264 1.168-.685 1.47a1.69 1.69 0 01-2.54-.682c-.185-.408-.19-.762-.032-1.19.342-.926 1.28-1.322 2.255-.958z" fill="currentColor"/></svg><svg fill="none" viewBox="0 0 10 6" id="chevron" xmlns="http://www.w3.org/2000/svg"><path d="M1 1l4 4 4-4" stroke="currentColor" stroke-width="1.5" stroke-linecap="round" stroke-linejoin="round"/></svg><svg fill="none" viewBox="0 0 32 32" id="phone" xmlns="http://www.w3.org/2000/svg"><circle opacity=".1" cx="16" cy="16" r="16" fill="currentColor"/><path d="M15.297 16.985c-1.194-.942-2.359-2.06-1.929-2.61.618-.786 1.174-1.291-.247-2.693-1.42-1.402-2.106-.114-2.703.647-.688.878.397 3.716 3.616 6.267 3.22 2.55 6.219 2.947 6.908 2.069.595-.763 1.68-1.732-.005-2.793-1.686-1.06-2.046-.398-2.661.387-.434.55-1.787-.328-2.98-1.274z" fill="currentColor"/></svg><svg fill="none" viewBox="0 0 32 32" id="youtube" xmlns="http://www.w3.org/2000/svg"><circle opacity=".1" cx="16" cy="16" r="16" fill="currentColor"/><path d="M20.16 15.601a1 1 0 010 1.797L13.69 20.56a1 1 0 01-1.439-.898v-6.324a1 1 0 011.439-.898l6.472 3.162z" fill="currentColor"/></svg></svg>