<?xml version="1.0" encoding="utf-8"?><svg viewBox="0 0 512 512" xmlns="http://www.w3.org/2000/svg" xmlns:xlink="http://www.w3.org/1999/xlink"><style>:root>svg{display:none}:root>svg:target{display:block}</style><svg viewBox="0 0 35 70" id="arrow-1" xmlns="http://www.w3.org/2000/svg"><path d="M30.6 47.5c-.6-.5-1.6-.4-2.1.2L19 59.6V5.5c0-.8-.7-1.5-1.5-1.5S16 4.7 16 5.5v54.1L6.5 47.7c-.6-.6-1.5-.7-2.1-.2-.7.5-.8 1.5-.3 2.1l12.2 15.2c.3.4.7.6 1.2.6s.9-.2 1.2-.6l12.2-15.2c.5-.6.4-1.6-.3-2.1z" fill="currentColor"/></svg><svg viewBox="0 0 80 180" id="arrow-2" xmlns="http://www.w3.org/2000/svg"><path d="M54.1 108c-.5 0-.9-.2-1.2-.6-.5-.7-.3-1.6.4-2.1 1.5-1 9.5-5.5 14.6-8.3-17.4-.5-31.3-7.3-41.3-20C9.9 55.7 9.5 24.2 14.2 3.7c.2-.8 1-1.3 1.8-1.1.8.2 1.3 1 1.1 1.8-4.6 19.9-4.2 50.3 11.8 70.8 9.5 12.2 23 18.6 39.9 18.9h.3l-3.2-4c-1.4-1.7-2.7-3.3-4.1-5.1-.7-.9-1.5-1.9-2.3-2.9-.5-.6-.4-1.6.2-2.1.6-.5 1.6-.4 2.1.2 0 0 0 .1.1.1l6.4 7.9c.5.6.9 1.1 1.4 1.7 1.5 1.8 3.1 3.6 4.3 5.5 0 .1.1.1.1.2.1.2.1.3.2.5v.3c0 .2 0 .3-.1.5 0 .1-.1.1-.1.2-.1.2-.2.3-.3.4-.1.1-.2.1-.3.2 0 0-.1 0-.2.1-.9.4-16 8.6-18.2 10.1-.4 0-.7.1-1 .1z" fill="currentColor"/></svg><svg viewBox="0 0 496 496" id="benefits-1" xmlns="http://www.w3.org/2000/svg"><g><path d="M447.808 390.192c-5.368-32.232-27.968-58.68-58.976-69.016L320 298.232V288h-16v15.008l-11.944 47.768L259.744 312h-23.496l-32.312 38.776L192 303.008V288h-16v10.232l-68.832 22.944c-31 10.336-53.6 36.784-58.976 69.016L30.552 496h434.896l-17.64-105.808zM104.76 480H49.448l2.568-15.44 53.616 6.704-.872 8.736zm104.304 0H120.84l7.12-71.2-15.92-1.592-4.816 48.136-52.576-6.576 9.32-55.944c4.4-26.368 22.888-48.008 48.256-56.464l66.104-22.04 17.728 70.904 18.04-21.648 9.544 14.32L209.064 480zm61.712 0h-45.552l15.128-105.896-15.568-23.352L243.744 328h8.504l18.96 22.752-15.568 23.352L270.776 480zm113.184-72.8l-15.92 1.592 7.12 71.2h-88.224l-14.584-102.104 9.544-14.32 18.048 21.656 17.728-70.904 66.104 22.04c25.368 8.456 43.856 30.096 48.256 56.472l9.32 55.944-52.576 6.576-4.816-48.152zm7.28 72.8l-.872-8.736 53.616-6.704 2.568 15.44H391.24z" fill="currentColor" data-original="#000000"/><path d="M121.128 150.88C115.512 157.768 112 166.44 112 176c0 20.528 15.6 37.296 35.536 39.552 4.08 14.04 11.616 26.912 22.24 37.536l31.2 31.2c7.552 7.552 17.592 11.712 28.28 11.712h37.496c10.68 0 20.728-4.16 28.28-11.712l31.2-31.2c10.624-10.624 18.16-23.504 22.24-37.536C368.4 213.296 384 196.528 384 176c0-9.56-3.512-18.232-9.128-25.12C384.744 147.904 392 138.832 392 128c0-13.232-10.768-24-24-24h-1.136C360.488 56.776 326.024 17.264 280 4.504V0h-64v4.504c-46.024 12.76-80.496 52.28-86.864 99.496H128c-13.232 0-24 10.768-24 24 0 10.832 7.256 19.904 17.128 22.88zM128 176c0-10.416 6.712-19.216 16-22.528v37.392c0 2.616.152 5.208.376 7.784C134.896 195.44 128 186.552 128 176zm207.992 14.864c.008 19.232-7.48 37.312-21.08 50.912l-31.2 31.2c-4.464 4.464-10.648 7.024-16.968 7.024h-37.496c-6.32 0-12.496-2.56-16.968-7.024l-31.2-31.2c-13.6-13.6-21.088-31.68-21.088-50.912V152h176v38.864zm15.632 7.776c.224-2.568.376-5.16.376-7.776v-37.392c9.288 3.312 16 12.112 16 22.528 0 10.552-6.896 19.44-16.376 22.64zM216 21.168V88h16V16h32v72h16V21.168C317.08 33.192 344.752 65.48 350.768 104H145.232C151.248 65.48 178.92 33.192 216 21.168zM128 120h240c4.408 0 8 3.592 8 8s-3.592 8-8 8H128c-4.408 0-8-3.592-8-8s3.592-8 8-8z" fill="currentColor" data-original="#000000"/><path fill="currentColor" data-original="#000000" d="M296 72h16v16h-16zM184 72h16v16h-16z"/></g></svg><svg viewBox="0 0 512 512" id="benefits-2" xmlns="http://www.w3.org/2000/svg"><path d="M344 320h-48.548a45.756 45.756 0 0112.126-8.845 62.055 62.055 0 0027.577-27.577l16-32-14.31-7.156-16 32a45.956 45.956 0 01-20.423 20.423A62.113 62.113 0 00275.294 320h-19.048l1.908-7.63a37.311 37.311 0 0122.283-25.528 53.33 53.33 0 0030.063-30.725l4.99-13.308-14.98-5.618-4.991 13.309a37.298 37.298 0 01-21.024 21.486 53.353 53.353 0 00-31.864 36.502L239.754 320h-20.21l12.601-33.604a39.47 39.47 0 0122.248-22.738 49.054 49.054 0 0024.602-21.675l-13.99-7.765a33.005 33.005 0 01-16.553 14.585 55.505 55.505 0 00-31.288 31.975L202.456 320H192v-22.55l16.146-43.054a39.47 39.47 0 0122.247-22.738 48.83 48.83 0 005.475-2.593l-7.736-14.005a32.9 32.9 0 01-3.68 1.743 55.505 55.505 0 00-31.288 31.975L192 251.883v-33.46l5.823-8.736a33.125 33.125 0 0119.564-13.788 49.155 49.155 0 0012.352-4.942l-7.898-13.914a33.214 33.214 0 01-8.333 3.334A49.096 49.096 0 00192 192.02v-19.225a105.961 105.961 0 0035.378-32.26l-13.182-9.07A89.915 89.915 0 01182.046 160H161.77a91.759 91.759 0 0030.92-27.361l-13.037-9.278a75.684 75.684 0 01-27.715 23.727L126.112 160H94.13l5.801-9.669A29.665 29.665 0 01125.241 136a45.733 45.733 0 0036.414-18.207A34.65 34.65 0 01189.242 104H232V88h-42.758a50.727 50.727 0 00-40.388 20.193A29.657 29.657 0 01125.242 120a45.746 45.746 0 00-39.03 22.099L75.47 160H24a8 8 0 00-8 8v320a8 8 0 008 8h320a8 8 0 008-8V328a8 8 0 00-8-8zM32 176h144v144H32zm0 160h144v144H32zm304 144H192V336h144z" fill="currentColor" data-original="#000000"/><path d="M489.452 126.467a18.004 18.004 0 00-30.338-9.24l-1.618-11.324A20.956 20.956 0 00436.853 88 20.74 20.74 0 00424 92.455V48a8 8 0 00-8-8H256a8 8 0 00-8 8v160a8 8 0 008 8h62.123a22.03 22.03 0 003.143 2.735L368 252.117V296a8 8 0 008 8h16v184a8 8 0 008 8h72a8 8 0 008-8V304h8a8 8 0 008-8V160a8.03 8.03 0 00-.155-1.57zM312.025 200H264V56h144v26.854A22.292 22.292 0 00397.126 80a20.24 20.24 0 00-14.407 5.968 20.47 20.47 0 00-5.763 17.289l1.576 11.033a18.48 18.48 0 00-32.566 15.434l11.416 51.376-10.558-2.641a32.798 32.798 0 00-22.593 2.481A21.987 21.987 0 00312.025 200zm15.975.73a6.093 6.093 0 013.386-5.479 16.777 16.777 0 0111.558-1.27l17.897 4.475 4.596 32.167-34.87-24.907A6.139 6.139 0 01328 200.73zM464 480h-56V304h56zm16-192h-96v-40a7.977 7.977 0 00-.089-1.13l.008-.002-8-56-.015.002c-.029-.202-.05-.404-.094-.605l-14.225-64.013a2.48 2.48 0 014.549-1.813l19.006 31.677a8 8 0 0014.78-5.248l-7.126-49.875a4.396 4.396 0 011.239-3.712A4.346 4.346 0 01397.126 96a6.442 6.442 0 016.169 4.654l13.013 45.544A8 8 0 00432 144v-35.147a4.853 4.853 0 019.657-.687l6.424 44.965a8 8 0 0015.68.81l6.107-24.428a1.996 1.996 0 013.895.092L480 160.792zM48 200v72h16v-64h24v-16H56a8 8 0 00-8 8zM104 192h16v16h-16zM48 360v72h16v-64h24v-16H56a8 8 0 00-8 8zM104 352h16v16h-16zM224 368h24v-16h-32a8 8 0 00-8 8v72h16zM264 352h16v16h-16z" fill="currentColor" data-original="#000000"/><path d="M280 80v72h16V88h24V72h-32a8 8 0 00-8 8zM336 72h16v16h-16z" fill="currentColor" data-original="#000000"/></svg><svg viewBox="0 0 64 64" id="benefits-3" xmlns="http://www.w3.org/2000/svg"><g><path d="M23.423 19.759c.677.786.69 2.125.029 2.924l-1.395 1.684c-.676.816-.902 1.762-.622 2.598.28.835 1.033 1.453 2.064 1.697l2.129.501c1.009.238 1.807 1.313 1.742 2.348l-.138 2.183c-.055.871.188 1.642.685 2.172.706.751 1.862.934 3.005.454l2.017-.846c.922-.384 2.259.041 2.789.875l1.172 1.849c.562.886 1.384 1.394 2.257 1.394.89 0 1.718-.525 2.273-1.439l1.135-1.87c.515-.851 1.832-1.301 2.771-.93l2.034.805c1.144.455 2.288.256 2.98-.496.497-.541.731-1.323.658-2.202l-.181-2.18c-.086-1.034.69-2.124 1.694-2.382l2.119-.543c1.026-.263 1.766-.896 2.03-1.737s.018-1.782-.673-2.585l-1.428-1.656c-.677-.786-.69-2.125-.029-2.924l1.395-1.685c.676-.815.903-1.762.622-2.597-.28-.836-1.033-1.454-2.064-1.697l-2.129-.501c-1.009-.238-1.807-1.313-1.742-2.348l.138-2.183c.055-.871-.188-1.643-.685-2.172-.705-.752-1.861-.935-3.005-.454l-2.017.846c-.923.384-2.259-.04-2.789-.876l-1.171-1.847c-.562-.887-1.384-1.395-2.257-1.395-.89 0-1.718.525-2.273 1.439l-1.135 1.87c-.516.851-1.837 1.3-2.771.93l-2.035-.806c-1.144-.453-2.287-.256-2.98.497-.497.54-.731 1.323-.658 2.202l.181 2.18c.086 1.034-.69 2.124-1.695 2.381l-2.119.544c-1.026.263-1.766.896-2.03 1.737-.264.84-.018 1.782.673 2.585zm-.25-3.661c.057-.183.305-.347.661-.438l2.118-.544c1.93-.494 3.313-2.436 3.147-4.422l-.181-2.18c-.027-.327.028-.592.152-.727.027-.029.109-.118.334-.118.146 0 .32.038.503.111l2.034.806c.46.183.955.275 1.471.275 1.494 0 2.936-.785 3.674-2.003l1.135-1.87c.382-.631.839-.633 1.232-.012l1.171 1.847c.744 1.174 2.168 1.932 3.629 1.932.545 0 1.066-.102 1.549-.305l2.018-.846a1.37 1.37 0 01.517-.121c.215 0 .296.086.322.114.125.134.185.396.164.722l-.138 2.183c-.126 1.988 1.295 3.902 3.233 4.36l2.129.501c.358.084.608.243.669.424.061.182-.043.459-.278.743l-1.395 1.685c-1.27 1.534-1.246 3.918.054 5.428l1.428 1.656c.24.279.349.554.292.738-.057.183-.305.347-.661.438l-2.119.543c-1.929.495-3.312 2.437-3.146 4.422l.181 2.18c.027.327-.028.592-.152.727-.027.029-.108.118-.333.118-.146 0-.32-.039-.504-.112l-2.034-.805a3.96 3.96 0 00-1.471-.275c-1.494 0-2.936.786-3.673 2.003l-1.135 1.87c-.382.628-.838.631-1.232.012l-1.172-1.849c-.744-1.172-2.168-1.93-3.629-1.93-.545 0-1.066.102-1.549.305l-2.018.846a1.39 1.39 0 01-.517.121c-.215 0-.296-.086-.322-.115-.125-.133-.185-.396-.164-.721l.138-2.183c.126-1.988-1.295-3.902-3.233-4.36l-2.129-.501c-.358-.084-.609-.243-.67-.425s.043-.459.277-.743l1.396-1.684c1.27-1.534 1.246-3.918-.054-5.428l-1.428-1.656c-.239-.279-.348-.553-.291-.737z" fill="currentColor" data-original="#000000"/><path d="M38.996 31.849c5.945 0 10.782-4.836 10.782-10.782 0-5.945-4.837-10.781-10.782-10.781s-10.782 4.836-10.782 10.781c-.001 5.946 4.836 10.782 10.782 10.782zm0-19.623c4.875 0 8.842 3.966 8.842 8.841s-3.967 8.842-8.842 8.842-8.842-3.967-8.842-8.842 3.966-8.841 8.842-8.841zM62.137 41.698c-.592-.784-2.308-1.889-4.574-.456l-7.831 5.102-4.706 1.965c-.533-2.394-3.151-2.893-4.494-2.819h-8.744c-3.605-2.067-11.698-4.74-12.105-4.872-4.911-1.279-7.625 1.207-8.428 2.121l-2.119.495-.021-.109c-.114-.593-.383-1.023-.8-1.278-.423-.258-.885-.315-1.657-.152-.048.009-4.728.988-4.728.988a.97.97 0 00-.752 1.145l3.477 16.854a.978.978 0 00.424.62.978.978 0 00.74.13l4.719-1.067c.882-.2 1.676-1.267 1.424-2.378l-.034-.176c1.96-.165 4.376-.238 5.109.043a.888.888 0 00.114.036l12.126 3.01c1.375.281 2.494.408 3.508.408 1.76 0 3.205-.384 5.129-1.011 5.493-1.792 11.099-4.76 11.335-4.886a.968.968 0 00.133-.085l11.774-8.986c.153-.108 1.498-1.092 1.667-2.548.064-.533-.013-1.34-.686-2.094zm-52.12 16.804c-.381.081-1.3.287-3.661.82L3.274 44.383l3.773-.788c.066-.013.124-.025.177-.033l1.978 10.337.617 3.232.005.014c.145.757.237 1.233.243 1.258.007.029-.027.075-.05.099zm50.881-14.937c-.056.508-.655 1.044-.887 1.211l-11.74 8.96c-.659.346-5.947 3.084-10.958 4.718-2.825.922-4.306 1.227-7.648.547l-.001.009c-.603-.16-2.867-.723-11.995-2.989-1.342-.471-4.468-.272-6.109-.124l-.447-2.332-1.608-8.425 2.514-.587a.988.988 0 00.57-.382c.084-.117 2.118-2.851 6.546-1.693.086.027 8.601 2.839 11.89 4.813a.967.967 0 00.499.138l9.064-.002c.1-.006 2.411-.124 2.578 1.509 0 .003.008.225-.074.499a1.354 1.354 0 00-.034.102 1.414 1.414 0 01-.287.484c-.354.387-.958.588-1.783.599h-11.94a.97.97 0 100 1.94H41c1.395-.017 2.473-.43 3.204-1.229.237-.26.413-.534.543-.803l5.816-2.428c.054-.023.107-.05.156-.082l7.894-5.143c1.209-.764 1.828-.188 2.026.051.262.298.273.507.259.639z" fill="currentColor" data-original="#000000"/><path d="M25.851 50.636h-.702a.97.97 0 100 1.94h.702a.97.97 0 100-1.94zM35.827 23.024c.012.021.035.028.048.048a.803.803 0 00.209.206c.03.02.055.043.088.059a.804.804 0 00.355.093l.012.003.007-.001h4.845c.007 0 .014-.004.021-.004.013.001.026.005.039.005.075 0 .143-.036.215-.056.017-.006.036-.007.053-.014.178-.063.342-.163.444-.338l2.285-3.899a.824.824 0 00-.833-1.232l-2.529.38-1.391-1.581a.812.812 0 00-.7-.261.812.812 0 00-.7.261l-1.391 1.581-2.529-.38a.824.824 0 00-.833 1.232zm1.278-3.054a.829.829 0 00.741-.271l1.149-1.306 1.149 1.306c.186.21.467.31.741.271l1.268-.19-1.174 2.004H37.01l-1.174-2.004zM41.392 24.618h-4.854a.825.825 0 100 1.648h4.854a.825.825 0 100-1.648z" fill="currentColor" data-original="#000000"/></g></svg><svg viewBox="0 0 512 512" id="benefits-4" xmlns="http://www.w3.org/2000/svg"><g><path d="M442.281 331.486a197.849 197.849 0 00-22.443-60.211c-2.176-4.335-4.386-8.721-6.562-13.235a513.52 513.52 0 00-15.454-29.491c-.503-.853-1.417-2.193-2.483-3.661-.768-1.058-2.21-3.063-2.825-4.19V42.667C392.486 19.114 373.4.028 349.848 0H110.931c-.372.048-.74.122-1.101.222-1.024 0-2.031-.128-3.055 0C85.688 2.797 69.528 20.2 68.521 41.421c-.12.407-.206.824-.256 1.246V435.2c0 14.138 11.461 25.6 25.6 25.6H265.7a205.919 205.919 0 008.875 45.303A8.534 8.534 0 00282.69 512h120.32a8.533 8.533 0 008.337-6.682c8.192-36.881 17.425-77.073 25.318-110.276 1.8-7.552 3.652-15.36 5-23.305a134.625 134.625 0 002.065-20.847 117.17 117.17 0 00-1.449-19.404zM264.728 443.733H93.865a8.533 8.533 0 01-8.533-8.533V44.134c-.288-13.534 9.626-25.129 23.04-26.948a25.37 25.37 0 0119.763 6.536 25.662 25.662 0 018.397 18.944v324.267c0 14.138 11.461 25.6 25.6 25.6h105.643a311.605 311.605 0 00-3.047 51.2zm8.337-170.666v93.013c-.674 2.304-1.468 5.495-2.287 9.387H162.131a8.533 8.533 0 01-8.533-8.533V42.667a42.669 42.669 0 00-8.644-25.6h204.911c14.138 0 25.6 11.462 25.6 25.6V358.4a16.923 16.923 0 01-7.962 14.396l-.324.213a16.329 16.329 0 01-7.765 2.381c-.34-.008-.68.018-1.015.077a16.933 16.933 0 01-9.643-2.97 16.082 16.082 0 01-4.139-4.087 16.402 16.402 0 01-3.106-7.799 11.446 11.446 0 01-.179-2.21v-85.333c0-18.851-15.282-34.133-34.133-34.133s-34.134 15.28-34.134 34.132zm151.808 95.855c-1.254 7.39-3.038 14.925-4.779 22.187-7.45 31.292-16.06 68.736-23.893 103.825H289.013a203.71 203.71 0 01-6.938-42.513v-.154c0-.051-.051-.162-.051-.256a272.325 272.325 0 017.151-81.331 8.535 8.535 0 00.956-3.831v-93.781a17.066 17.066 0 0129.133-12.057 16.927 16.927 0 015.001 12.058V358.4a27.076 27.076 0 00.427 5.052 34.386 34.386 0 0014.447 23.108 33.894 33.894 0 0019.26 5.973 18.4 18.4 0 002.125-.111 33.564 33.564 0 0015.633-4.89l.393-.239a34.133 34.133 0 0015.983-28.894V254.66a529.208 529.208 0 015.385 10.795c2.219 4.599 4.463 9.071 6.69 13.491a185.375 185.375 0 0120.796 55.168 100.59 100.59 0 011.263 16.606 117.11 117.11 0 01-1.794 18.202z" fill="currentColor" data-original="#000000"/><path d="M249.73 51.373a8.535 8.535 0 00-8.299 2.327l-28.1 28.1-11.034-11.034a8.533 8.533 0 00-11.962.104 8.533 8.533 0 00-.104 11.962L207.298 99.9a8.534 8.534 0 0012.066 0l34.133-34.133a8.534 8.534 0 00-3.767-14.394zM281.598 85.333h51.2a8.533 8.533 0 000-17.066h-51.2c-4.713 0-8.533 3.82-8.533 8.533s3.82 8.533 8.533 8.533zM241.432 113.434l-28.1 28.1-11.034-11.034a8.533 8.533 0 00-11.962.104 8.533 8.533 0 00-.104 11.962l17.067 17.067a8.534 8.534 0 0012.066 0l34.133-34.133a8.533 8.533 0 00-.104-11.962 8.533 8.533 0 00-11.962-.104zM281.598 145.067h51.2c4.713 0 8.533-3.82 8.533-8.533s-3.82-8.534-8.533-8.534h-51.2c-4.713 0-8.533 3.82-8.533 8.533s3.82 8.534 8.533 8.534zM241.432 173.167l-28.1 28.1-11.034-11.034a8.533 8.533 0 00-11.962.104 8.533 8.533 0 00-.104 11.962l17.067 17.067a8.534 8.534 0 0012.066 0l34.133-34.133a8.533 8.533 0 00-.104-11.962 8.533 8.533 0 00-11.962-.104zM341.331 196.267a8.533 8.533 0 00-8.533-8.533h-51.2a8.533 8.533 0 000 17.066h51.2a8.533 8.533 0 008.533-8.533zM241.432 232.9l-28.1 28.1-11.034-11.034a8.533 8.533 0 00-11.962.104 8.533 8.533 0 00-.104 11.962l17.067 17.067a8.534 8.534 0 0012.066 0l34.133-34.133a8.534 8.534 0 00-12.066-12.066zM241.432 292.634l-28.1 28.1-11.034-11.034a8.533 8.533 0 00-11.962.104 8.533 8.533 0 00-.104 11.962l17.067 17.067a8.534 8.534 0 0012.066 0l34.133-34.133a8.533 8.533 0 00-.104-11.962 8.533 8.533 0 00-11.962-.104z" fill="currentColor" data-original="#000000"/></g></svg><svg viewBox="0 0 512 512" id="benefits-5" xmlns="http://www.w3.org/2000/svg"><path d="M126 267.366a6 6 0 00-6 6V276H78v-42h38.454a6 6 0 100-12H71.58c-3.313 0-5.58 2.638-5.58 5.952v54.364A5.392 5.392 0 0071.58 288h54.364a5.787 5.787 0 006.056-5.684v-8.95a6 6 0 00-6-6z" fill="currentColor" data-original="#000000"/><path d="M126.8 237.191l-19.517 16.363-6.283-6.283a6 6 0 10-8.484 8.485l10.169 10.169a6 6 0 008.1.355l23.728-19.892a6 6 0 00-7.709-9.2zM232.907 237h-75.345a6 6 0 000 12h75.345a6 6 0 100-12zM126 318H72a6 6 0 00-6 6v54a6 6 0 006 6h54a6 6 0 006-6v-54a6 6 0 00-6-6zm-6 55H78v-43h42zM66 132.656v54.364c0 3.313 2.267 5.98 5.58 5.98h54.364a6.031 6.031 0 006.056-5.98v-8.949a6 6 0 00-12 0V181H78v-42h38.454a6 6 0 100-12H71.58a5.369 5.369 0 00-5.58 5.656z" fill="currentColor" data-original="#000000"/><path d="M126.8 141.9l-19.517 16.362-6.283-6.287a6 6 0 10-8.484 8.485l10.169 10.169a6 6 0 008.1.355l23.728-19.893a6 6 0 00-7.709-9.2zM151.562 148a6 6 0 006 6h75.345a6 6 0 100-12h-75.345a6 6 0 00-6 6zM151.562 172a6 6 0 006 6h114.25a6 6 0 000-12h-114.25a6 6 0 00-6 6zM71 84a6 6 0 00-6-6h-2a6 6 0 000 12h2a6 6 0 006-6zM85 90h92a6 6 0 000-12H85a6 6 0 000 12z" fill="currentColor" data-original="#000000"/><path d="M472.344 463.665l-59.594-59.6a6 6 0 00-8.484 0l-3.879 3.879-2.225-2.225a96.554 96.554 0 00-9.1-125.8A95.861 95.861 0 00368 264.03V64.478a15.5 15.5 0 00-5.314-11.688l-50.13-43.734A16.467 16.467 0 00301.735 5H117.457a31.7 31.7 0 00-17.018 4.76A32.553 32.553 0 0085 37.4V49H64.632A32.728 32.728 0 0032 81.632v315.739A32.725 32.725 0 0064.629 430h204.846a95.3 95.3 0 0051.385 15h.015a95.929 95.929 0 0057.645-19.357l2.209 2.087-3.878 3.817a5.943 5.943 0 000 8.439l59.594 59.587a25.388 25.388 0 0035.9-35.908zM311 24.206L346.119 54H311zM64.637 418h-.006A20.692 20.692 0 0144 397.369V81.633A20.633 20.633 0 0164.633 61H247v43.439a5.561 5.561 0 005.561 5.561H303v65.748a6.167 6.167 0 005.814 6.252 6 6 0 006.186-6v-67.624a15.441 15.441 0 00-5.29-11.633L259.656 53.1a16.618 16.618 0 00-10.925-4.1H97V37.931a21.123 21.123 0 014.22-12.917A20.378 20.378 0 01117.47 17H299v43.434A5.566 5.566 0 00304.566 66H356v192.363a96.859 96.859 0 00-41-6.5V218a6 6 0 00-12 0v35.351a96.9 96.9 0 00-26.928 9.426 5.977 5.977 0 00-4.26-1.777h-114.25a6 6 0 000 12h102.881a95.845 95.845 0 00-34.812 60h-68.069a6 6 0 000 12h66.95a95.564 95.564 0 00-.055 3.08 98.728 98.728 0 00.5 9.92h-67.4a6 6 0 000 12h69.375a96.061 96.061 0 0025.751 46.506c.5.505 1.015 1 1.53 1.494zM259 98V68.218L293.218 98zm121.557 310.043A84.1 84.1 0 01320.874 433h-.012a84.72 84.72 0 01-59.671-144.545 85.013 85.013 0 0147.385-23.846 83.611 83.611 0 0112.166-.9 84.519 84.519 0 0159.815 144.339zm7.132 9.556c.454-.436.906-.872 1.352-1.318s.877-.928 1.32-1.389l1.541 1.542-2.689 2.689zm1.889 18.129l18.93-18.93 5.221 5.222-18.929 18.93zm74.281 55.352a13.4 13.4 0 01-18.929 0l-41.644-41.644 18.93-18.93 41.643 41.644a13.384 13.384 0 010 18.93z" fill="currentColor" data-original="#000000"/><path d="M375.541 293.444a77.3 77.3 0 00-109.317-.017 77.3 77.3 0 10109.317.017zm-8.5 100.831a65.3 65.3 0 11-55.68-110.783 64.53 64.53 0 019.411-.688 65.29 65.29 0 0146.268 111.471z" fill="currentColor" data-original="#000000"/><path d="M379.534 346.069c-1.057-1.448-26.263-35.457-58.66-35.457s-57.6 34.009-58.661 35.457a6 6 0 000 7.077c1.058 1.447 26.264 35.458 58.661 35.458s57.6-34.011 58.66-35.458a6 6 0 000-7.077zm-91.8 16.308a107.391 107.391 0 01-12.965-12.77 107.471 107.471 0 0112.965-12.769 35.4 35.4 0 000 25.539zm33.138 10.752a23.522 23.522 0 1123.528-23.522 23.548 23.548 0 01-23.526 23.522zm33.138-10.752a35.388 35.388 0 000-25.538 107.455 107.455 0 0112.964 12.768 107.445 107.445 0 01-12.962 12.77z" fill="currentColor" data-original="#000000"/></svg><svg viewBox="0 0 512 512" id="benefits-6" xmlns="http://www.w3.org/2000/svg"><g><path d="M511.884 446.119c-1.61-21.735-19.749-38.513-41.476-38.513-.25 0-109.521 2.134-109.521 2.134 2.794-13.489-1.412-27.987-11.824-37.781l-86.01-80.904c-31.069-30.253-72.062-46.917-115.432-46.917H10.02c-5.534 0-10.02 4.486-10.02 10.02v121.378a10.02 10.02 0 0010.02 10.019l64.341-.001 91.142 76.947c37.703 31.832 85.642 49.362 134.986 49.362.408 0 174.991-21.398 174.991-21.398 22.055-2.707 38.046-22.187 36.404-44.346zm-38.846 24.456l-173.154 21.249c-44.406-.143-87.516-15.98-121.454-44.633L84.488 367.88a10.023 10.023 0 00-6.464-2.364l-57.985.001V264.178h127.582c38.146 0 74.196 14.664 101.509 41.291l.129.124 86.074 80.964c6.929 6.518 8.406 17.169 3.512 25.327-5.73 9.55-17.812 12.738-27.505 7.254l-76.559-43.297c-4.817-2.725-10.93-1.028-13.654 3.789s-1.027 10.93 3.789 13.654l76.559 43.297c16.278 9.206 35.954 6.088 48.502-6.583 0 0 120.312-2.351 120.442-2.351 11.247 0 20.646 8.694 21.48 19.953.851 11.48-7.434 21.573-18.861 22.975zM27.472 173.326l210.991 66.781 95.515 51.994c4.798 2.611 10.985.777 13.591-4.01l71.729-131.768c2.645-4.86.85-10.945-4.01-13.591L323.764 92.91c-4.861-2.643-10.945-.85-13.591 4.01-2.645 4.86-.85 10.945 4.01 13.591l82.724 45.031-62.149 114.168-242.11-131.795 50.917-93.534.076-.14 11.155-20.492 79.738 43.406c4.861 2.644 10.945.85 13.591-4.01 2.645-4.86.85-10.945-4.01-13.591L155.577 1.357c-4.86-2.644-10.945-.851-13.591 4.01l-11.991 22.027-51.209-16.203c-5.273-1.666-10.905 1.254-12.575 6.529L20.943 160.749c-1.67 5.276 1.253 10.906 6.529 12.577zM82.293 33.319l37.941 12.005-49.978 91.81a10.018 10.018 0 004.009 13.591l71.945 39.164-103.139-32.645z" fill="currentColor" data-original="#000000"/><path d="M233.667 109.074c-10.063 2.969-18.365 9.674-23.378 18.882-10.351 19.017-3.302 42.909 15.714 53.261a39.022 39.022 0 0018.706 4.772c13.927 0 27.44-7.418 34.554-20.486 5.012-9.207 6.137-19.82 3.168-29.883-2.969-10.064-9.675-18.366-18.882-23.378-9.205-5.011-19.818-6.138-29.882-3.168zm29.545 32.217a19.102 19.102 0 01-1.548 14.631c-5.07 9.312-16.768 12.764-26.08 7.695-9.312-5.068-12.763-16.768-7.695-26.079 5.003-9.189 16.87-12.708 26.08-7.694 4.507 2.452 7.789 6.517 9.243 11.447zM200.099 78.234c2.646-4.86.851-10.945-4.009-13.591l-23.045-12.545a10.009 10.009 0 00-7.626-.809 10.013 10.013 0 00-5.965 4.819l-37.101 68.154c-2.645 4.86-.85 10.945 4.01 13.591l23.045 12.545c5.143 2.797 11.726.476 14.014-4.89 1.997-4.681.032-10.28-4.433-12.711l-14.245-7.754 27.52-50.554 14.245 7.754c4.861 2.644 10.945.851 13.59-4.009zM292.468 228.939l23.045 12.545c5.018 2.731 11 .611 13.704-4.218.711-1.269 36.45-66.939 37.346-68.606 2.656-4.939 1.285-11.183-3.81-13.958l-23.045-12.545c-4.861-2.643-10.945-.851-13.591 4.01-2.645 4.86-.85 10.945 4.01 13.591l14.246 7.754-28.079 51.58-14.245-7.754c-4.861-2.644-10.945-.851-13.591 4.01-2.645 4.86-.85 10.945 4.01 13.591z" fill="currentColor" data-original="#000000"/><path d="M176.28 109.442a9.997 9.997 0 004.001 13.561c4.849 2.64 10.922.849 13.562-4 2.64-4.85.848-10.923-4.001-13.562-4.852-2.641-10.923-.848-13.562 4.001zM299.394 187.844c4.849 2.64 10.922.849 13.562-4 2.64-4.85.848-10.923-4.001-13.562-4.851-2.64-10.921-.848-13.561 4.002-2.641 4.849-.851 10.919 4 13.56zM274.722 89.114c4.908 2.53 10.938.603 13.468-4.305s.603-10.938-4.305-13.468-10.938-.603-13.468 4.305c-2.531 4.908-.603 10.938 4.305 13.468zM379.969 277.245l.001 80.626c0 .121.014.238.018.357.365 19.591 30.387 28.334 56.13 29.862a149.57 149.57 0 0018.996 0c25.905-1.536 56.156-10.373 56.156-30.218 0-.026-.004-.051-.004-.078l.004-80.55c0-20.955-34.031-30.499-65.651-30.499s-65.65 9.545-65.65 30.5zm111.258 39.873c-1.994 3.022-14.371 9.134-35.922 10.633a142.27 142.27 0 01-19.391-.001c-21.549-1.499-33.925-7.618-35.905-10.638v-17.151c12.568 5.269 29.4 7.784 45.61 7.784 16.209 0 33.04-2.515 45.608-7.783zm-37.099 50.957c-5.691.197-11.307.209-16.999.001-22.276-1.351-35.077-7.598-37.12-10.725v-16.949c9.267 3.875 21.161 6.41 34.502 7.337 7.381.523 14.814.524 22.196.001 13.356-.928 25.252-3.463 34.52-7.336v16.953c-2.056 3.129-14.848 9.365-37.099 10.718zm-8.508-101.29c26.554 0 41.846 6.846 45.197 10.46-3.35 3.613-18.643 10.461-45.197 10.461s-41.846-6.847-45.197-10.461c3.35-3.613 18.643-10.46 45.197-10.46z" fill="currentColor" data-original="#000000"/></g></svg><svg fill="none" viewBox="0 0 60 60" id="car_1" xmlns="http://www.w3.org/2000/svg"><path d="M13.315 16.914c.368-.389 2.295-2.332 4.287-4.31C19.593 10.62 21.247 9 21.277 9c.12 0 6.73 6.499 7.892 7.765.338.364.66.757.725.877.1.19.104.234.05.369-.15.358-.636.408-4.058.408h-2.588l-.03 4.87c-.012 2.606-.035 2.669-.062 2.744a.308.308 0 00-.017.065c-.07.424-.258.822-.546 1.141-.264.294-.572.459-.994.538-.844.155-1.683-.234-2.021-.927-.13-.264-.134-.303-.174-1.554l-.012-.37c-.015-.418-.028-.764-.028-2.505l-.005-3.997-3.24-.015c-2.75-.012-3.116-.014-3.307-.197-.03-.029-.055-.06-.084-.098l-.014-.019c-.223-.284-.174-.393.551-1.18z" fill="currentColor"/><path fill-rule="evenodd" clip-rule="evenodd" d="M34.573 19.834a3.99 3.99 0 01.67-.473l.403-.22 3.144.015c4.629.02 7.35.085 7.668.18.363.114.67.453 2.31 2.546 2.443 3.115 4.3 5.687 4.415 6.105.114.424.144 1.64.15 5.856.004 4.167.049 6.689.118 6.858.025.05.124.095.264.115.297.04.625.234.76.448.143.24.198.952.198 2.771v1.47l-.358.36-.357.363h-4.301v-.264c0-.847-.214-1.714-.616-2.552a7.035 7.035 0 00-1.396-1.943c-1.008-1.012-2.235-1.66-3.6-1.9-.587-.099-1.868-.074-2.434.056-2.076.463-3.959 2.048-4.818 4.051-.293.683-.402 1.142-.437 1.88l-.035.647-12.59.025v-.448c0-.773-.214-1.585-.646-2.452-1.4-2.806-4.395-4.311-7.326-3.683-1.405.304-2.235.747-3.273 1.749-1.197 1.151-1.768 2.302-2.076 4.166l-.109.668h-3.58l-.358-.359L6 45.511V27.858l.233-.439c.487-.912 1.292-1.385 2.116-1.24.825.139 1.53.757 1.729 1.51.04.159.07 1.36.089 4.136l.03 3.912 23.865.025.005-4.171a696 696 0 01.044-7.566l.005-.343c.036-2.919.042-3.376.267-3.657.042-.052.091-.098.15-.153l.04-.038zm10.192 3.638c-.348-.344-.656-.473-1.252-.523-.73-.055-4.947-.115-4.991-.07-.025.025-.04 1.326-.04 2.9v2.856l4.857-.005c2.667 0 4.937-.014 5.036-.034l.184-.035-.551-.773c-.954-1.346-3.025-4.091-3.243-4.316z" fill="currentColor"/><path fill-rule="evenodd" clip-rule="evenodd" d="M16.172 41.494c-1.147.194-2.38 1.037-3.094 2.118-.571.857-.795 1.675-.755 2.736.03.798.139 1.256.482 1.949a4.811 4.811 0 003.725 2.671c1.971.24 3.968-.902 4.887-2.786.313-.648.337-.827.318-2.118v-.002c-.02-1.1-.02-1.105-.174-1.488-.547-1.366-1.758-2.537-2.995-2.896-.72-.209-1.763-.289-2.394-.184zm1.51 3.27c.442.149.993.926 1.003 1.415.01.443-.492 1.22-.934 1.46-.298.16-.998.154-1.33-.01-.96-.473-1.208-1.665-.512-2.442.452-.503 1.097-.658 1.773-.424zM39.52 42.929c.641-.703 1.664-1.266 2.613-1.435.139-.025.561-.035.943-.025 1.356.03 2.21.388 3.17 1.315.645.628 1.087 1.301 1.3 1.999.105.354.16 1.754.085 2.352-.194 1.56-1.525 3.055-3.218 3.623a4.294 4.294 0 01-2.827 0c-.839-.284-1.455-.682-2.1-1.36-.552-.583-.974-1.316-1.098-1.914-.084-.404-.07-2.267.02-2.616.144-.564.636-1.416 1.112-1.94zm5.056 3.145c-.064-.519-.501-1.117-.943-1.281-.92-.344-1.803.03-2.126.902-.149.404-.144.737.03 1.121a1.593 1.593 0 002.394.643c.397-.284.7-.932.645-1.385z" fill="currentColor"/></svg><svg fill="none" viewBox="0 0 60 60" id="car_2" xmlns="http://www.w3.org/2000/svg"><path d="M26.84 12.822a2.232 2.232 0 00-3.132-3.18l-3.657 3.603-3.657-3.603a2.232 2.232 0 10-3.132 3.18l3.61 3.556-3.61 3.556a2.232 2.232 0 103.132 3.18l3.657-3.604 3.658 3.604a2.232 2.232 0 003.132-3.18l-3.61-3.556 3.61-3.556z" fill="currentColor"/><path fill-rule="evenodd" clip-rule="evenodd" d="M34.32 17.93c.157-.148.479-.375.71-.502l.428-.233 3.336.016c4.912.022 7.8.09 8.137.19.385.122.712.482 2.45 2.703 2.594 3.305 4.565 6.034 4.686 6.478.121.45.153 1.74.158 6.214.005 4.421.053 7.097.126 7.277.027.053.132.1.28.122.316.042.664.248.806.476.153.254.21 1.01.21 2.94v1.56l-.378.38-.38.387h-4.564v-.28c0-.9-.227-1.82-.654-2.708a7.463 7.463 0 00-1.48-2.063c-1.07-1.073-2.372-1.76-3.821-2.014-.622-.106-1.982-.08-2.583.058-2.203.492-4.2 2.173-5.112 4.3-.31.724-.427 1.21-.464 1.993l-.036.687-13.36.027v-.476c0-.82-.227-1.682-.686-2.602-1.486-2.977-4.664-4.574-7.773-3.908-1.492.323-2.372.793-3.473 1.856-1.27 1.222-1.876 2.443-2.203 4.421l-.116.709h-3.8l-.38-.38L4 45.175V26.445l.248-.465c.516-.968 1.37-1.47 2.245-1.317.875.148 1.623.803 1.834 1.602.042.17.074 1.444.095 4.39l.031 4.15 25.324.027.005-4.426c0-2.438.021-6.05.047-8.028l.005-.365c.039-3.096.045-3.581.284-3.88.044-.055.096-.104.159-.162l.042-.04zm10.814 3.861c-.369-.365-.696-.502-1.328-.555-.775-.058-5.25-.122-5.297-.074-.026.026-.042 1.407-.042 3.078v3.03l5.154-.005c2.83 0 5.239-.016 5.344-.037l.195-.038-.585-.82c-1.012-1.427-3.21-4.34-3.441-4.579z" fill="currentColor"/><path fill-rule="evenodd" clip-rule="evenodd" d="M11.51 43.161c.759-1.147 2.066-2.041 3.283-2.247.67-.111 1.776-.027 2.54.195 1.313.381 2.599 1.624 3.178 3.073.164.407.164.412.185 1.579v.002c.02 1.37-.005 1.56-.337 2.248-.975 1.999-3.094 3.21-5.186 2.956a5.106 5.106 0 01-3.953-2.835c-.364-.735-.48-1.221-.511-2.067-.042-1.127.195-1.994.8-2.904zm5.95 2.724c-.01-.518-.596-1.343-1.065-1.502-.716-.249-1.402-.085-1.881.45-.738.824-.474 2.088.543 2.59.353.175 1.096.18 1.412.011.47-.254 1.002-1.078.991-1.55zM42.34 40.913c-1.006.18-2.092.778-2.772 1.524-.505.555-1.027 1.46-1.18 2.057-.095.37-.11 2.348-.021 2.776.132.635.58 1.412 1.165 2.03.685.72 1.338 1.143 2.229 1.445a4.556 4.556 0 002.999 0c1.797-.603 3.21-2.19 3.415-3.845.079-.635.02-2.12-.09-2.496-.227-.74-.696-1.455-1.38-2.12-1.018-.984-1.924-1.365-3.363-1.397-.406-.01-.854 0-1.001.026zm1.592 3.501c.47.175.933.81 1.002 1.36.058.48-.264 1.168-.685 1.47a1.69 1.69 0 01-2.54-.682c-.185-.408-.19-.762-.032-1.19.342-.926 1.28-1.322 2.255-.958z" fill="currentColor"/></svg><svg fill="none" viewBox="0 0 10 6" id="chevron" xmlns="http://www.w3.org/2000/svg"><path d="M1 1l4 4 4-4" stroke="currentColor" stroke-width="1.5" stroke-linecap="round" stroke-linejoin="round"/></svg><svg fill="none" viewBox="0 0 32 32" id="phone" xmlns="http://www.w3.org/2000/svg"><circle opacity=".1" cx="16" cy="16" r="16" fill="currentColor"/><path d="M15.297 16.985c-1.194-.942-2.359-2.06-1.929-2.61.618-.786 1.174-1.291-.247-2.693-1.42-1.402-2.106-.114-2.703.647-.688.878.397 3.716 3.616 6.267 3.22 2.55 6.219 2.947 6.908 2.069.595-.763 1.68-1.732-.005-2.793-1.686-1.06-2.046-.398-2.661.387-.434.55-1.787-.328-2.98-1.274z" fill="currentColor"/></svg><svg fill="none" viewBox="0 0 32 32" id="youtube" xmlns="http://www.w3.org/2000/svg"><circle opacity=".1" cx="16" cy="16" r="16" fill="currentColor"/><path d="M20.16 15.601a1 1 0 010 1.797L13.69 20.56a1 1 0 01-1.439-.898v-6.324a1 1 0 011.439-.898l6.472 3.162z" fill="currentColor"/></svg></svg>