<?xml version="1.0" encoding="utf-8"?><svg viewBox="0 0 32 32" xmlns="http://www.w3.org/2000/svg" xmlns:xlink="http://www.w3.org/1999/xlink"><style>:root>svg{display:none}:root>svg:target{display:block}</style><svg fill="none" viewBox="0 0 10 6" id="chevron" xmlns="http://www.w3.org/2000/svg"><path d="M1 1l4 4 4-4" stroke="currentColor" stroke-width="1.5" stroke-linecap="round" stroke-linejoin="round"/></svg><svg fill="none" viewBox="0 0 32 32" id="phone" xmlns="http://www.w3.org/2000/svg"><circle opacity=".1" cx="16" cy="16" r="16" fill="currentColor"/><path d="M15.297 16.985c-1.194-.942-2.359-2.06-1.929-2.61.618-.786 1.174-1.291-.247-2.693-1.42-1.402-2.106-.114-2.703.647-.688.878.397 3.716 3.616 6.267 3.22 2.55 6.219 2.947 6.908 2.069.595-.763 1.68-1.732-.005-2.793-1.686-1.06-2.046-.398-2.661.387-.434.55-1.787-.328-2.98-1.274z" fill="currentColor"/></svg><svg fill="none" viewBox="0 0 32 32" id="youtube" xmlns="http://www.w3.org/2000/svg"><circle opacity=".1" cx="16" cy="16" r="16" fill="currentColor"/><path d="M20.16 15.601a1 1 0 010 1.797L13.69 20.56a1 1 0 01-1.439-.898v-6.324a1 1 0 011.439-.898l6.472 3.162z" fill="currentColor"/></svg></svg>