<?xml version="1.0" encoding="UTF-8"?> <svg xmlns="http://www.w3.org/2000/svg" width="100" height="100" viewBox="0 0 100 100" fill="none"> <path fill-rule="evenodd" clip-rule="evenodd" d="M55.1999 26.6192C53.618 27.5001 51.7263 28.5578 50.9962 28.9697C50.2661 29.3819 47.5282 30.894 44.912 32.3305L40.1552 34.942L34.071 34.9435C30.6236 34.9442 27.635 35.0427 27.1753 35.1704C26.7202 35.2968 26.0644 35.737 25.6819 36.1728L25 36.9499V54.9481V72.9463L25.5044 73.6953C25.7819 74.107 26.2549 74.5684 26.5554 74.7207C26.9815 74.9363 31.9269 74.9978 49.005 74.9998C70.3416 75.002 70.9266 74.991 71.6164 74.57C72.9187 73.7758 73.0101 73.342 73.0101 67.9519V63.0912L73.684 62.5239C74.967 61.4438 74.9984 61.2628 74.9999 54.9477C75.0013 49.3008 74.9898 49.1527 74.5066 48.529C74.2344 48.1777 73.7864 47.7089 73.511 47.4869C73.0359 47.1045 73.0101 46.9314 73.0101 44.1444C73.0101 41.4667 72.9658 41.1382 72.5122 40.4532C72.2386 40.0395 71.5979 39.5074 71.0888 39.2706C70.1589 38.8383 69.9213 38.4475 69.9157 37.3408C69.9115 36.5376 68.6121 35.2262 67.6615 35.0662C67.2568 34.998 66.3847 34.9172 65.7231 34.8869C64.3822 34.8253 64.4906 34.9477 62.4397 31.1798C62.0089 30.3885 61.2741 29.0598 60.8067 28.2272C60.3392 27.3947 59.9566 26.6659 59.9566 26.6079C59.9566 26.2728 58.7396 24.9853 58.4369 25.0001C58.2384 25.0099 56.7818 25.7385 55.1999 26.6192ZM58.4778 27.6938C58.6436 27.9675 59.409 29.3372 60.179 30.7371C60.9489 32.137 61.7443 33.5812 61.9463 33.9464C63.5895 36.9165 64.3815 38.4583 64.3815 38.687C64.3815 38.8474 64.1472 38.9275 63.7999 38.8857C63.2102 38.8149 62.8961 38.3556 60.7985 34.4998C59.9133 32.8727 59.4316 32.4659 58.7132 32.7393C57.9621 33.0248 56.4961 33.006 55.9043 32.703C55.6386 32.5669 55.0601 32.1102 54.6187 31.6886L53.8162 30.9217L52.8487 31.4104C52.3166 31.6791 50.1389 32.8688 48.0094 34.054C38.9174 39.1143 38.3466 39.3813 37.6016 38.9207C37.3317 38.7538 37.347 38.6743 37.6992 38.4169C37.9291 38.2487 42.0495 35.9289 46.8559 33.2621C51.662 30.5952 56.0532 28.1466 56.6141 27.821C57.8809 27.0853 58.1006 27.0703 58.4778 27.6938ZM54.8561 34.1007C55.6818 34.6215 56.0789 34.7211 57.33 34.7211C58.7075 34.7211 58.8517 34.7671 59.2363 35.3298C60.069 36.548 60.9137 38.4189 60.7841 38.7573C60.6668 39.0632 59.6748 39.1064 52.3943 39.1228C47.4769 39.134 44.0034 39.0557 43.8058 38.9295C43.5266 38.7511 43.5615 38.6551 44.0266 38.324C44.3306 38.1075 44.7874 37.8202 45.0419 37.6854C45.4897 37.4481 46.1974 37.0608 50.6644 34.6069C51.8204 33.9721 52.9155 33.4028 53.098 33.342C53.4633 33.2204 53.4532 33.216 54.8561 34.1007ZM35.6186 36.9291C35.9023 37.1084 35.8866 37.1852 35.508 37.4683C35.2653 37.6498 34.4693 38.0898 33.7392 38.4461C32.4475 39.0769 32.3413 39.0913 29.807 38.9864C27.5244 38.8917 27.1739 38.8255 26.9739 38.4514C26.6691 37.8815 26.9191 37.1719 27.5085 36.9342C28.1587 36.6717 35.2049 36.6675 35.6186 36.9291ZM67.6274 37.0495C67.9978 37.2923 68.1427 37.5964 68.1427 38.131C68.1427 38.8853 67.7889 39.1575 67.0364 38.9831C66.6991 38.9047 65.9302 37.5851 65.9302 37.0843C65.9302 36.681 67.0309 36.6587 67.6274 37.0495ZM70.9678 41.3013C71.1786 41.5846 71.2337 42.8398 71.189 46.3338L71.1295 50.9891L66.4833 51.1062C62.2332 51.2135 61.7383 51.2675 60.6775 51.7414C58.0055 52.9349 56.6853 55.686 57.4236 58.522C57.8661 60.2216 58.9398 61.5177 60.5675 62.3174C61.8202 62.9327 61.9003 62.9422 66.5387 63.0155L71.2401 63.0899V67.8138C71.2401 71.8131 71.1868 72.5908 70.8925 72.8854C70.5812 73.1968 68.2989 73.2331 49.0853 73.2331C34.716 73.2331 27.4843 73.1574 27.1978 73.0041C26.7808 72.7807 26.77 72.3684 26.77 56.8834C26.77 48.1434 26.8113 40.9507 26.862 40.9001C26.9127 40.8494 36.7941 40.8339 48.8205 40.866C69.1259 40.92 70.7071 40.9512 70.9678 41.3013ZM73.1207 56.8478V60.7147L72.5676 61.0073C72.1437 61.2315 70.8525 61.2829 67.0364 61.2267C61.6281 61.1472 61.3334 61.0863 60.1495 59.8068C59.2785 58.8653 59.0716 58.3312 59.0716 57.0231C59.0716 55.1002 60.0865 53.7896 62.1691 53.0234C62.3516 52.9563 64.8904 52.9194 67.8108 52.9413L73.1207 52.9811V56.8478ZM62.2498 55.3425C61.3151 55.7954 60.917 57.3629 61.5447 58.1194C62.4323 59.1893 64.0016 59.107 64.682 57.9547C65.176 57.1181 65.0291 56.3595 64.2297 55.6183C63.6182 55.0515 63.0222 54.9685 62.2498 55.3425Z" fill="#373C59" stroke="#373C59" stroke-width="0.3"></path> </svg> 